# xmcd CD Database Entry
#
# Track frame offsets:
# 150
# 16690
# 33257
# 49088
# 64292
# 88614
# 110955
# 131970
# 151370
# 170167
#
# Disc length: 2525 seconds
#
# Revision: 2
# Processed by: cddbd v1.4b41PL1 Copyright (c) Steve Scherf et al.
# Submitted via: tcd 2.0b
#
DISCID=8909db0a
DTITLE=Fiona Apple - When The Pawn Hits...
DYEAR=1900
DGENRE=
TTITLE0=On The Bound
TTITLE1=To Your Love
TTITLE2=Limp
TTITLE3=Love RIdden
TTITLE4=Paper Bag
TTITLE5=A Mistake
TTITLE6=Fast As You Can
TTITLE7=The Way Things Are
TTITLE8=Get Gone
TTITLE9=I Know
EXTD=
EXTT0=
EXTT1=
EXTT2=
EXTT3=
EXTT4=
EXTT5=
EXTT6=
EXTT7=
EXTT8=
EXTT9=
PLAYORDER=
